REM DIRINDEX 1\2,1\3,1\4,1\5,1\6
REM DIRNAME folder01,folder02,folder03,folder04,folder05,folder06
TITLE ""
FILE "Disc2Track17.mp3" MP3
  TRACK 01 AUDIO
    TITLE "2:cjc030_02460"
    INDEX 01 00:00:00
  TRACK 02 AUDIO
    TITLE "0:"
    INDEX 01 00:05:18
  TRACK 03 AUDIO
    TITLE "3:cjc030_02461"
    INDEX 01 00:05:54
  TRACK 04 AUDIO
    TITLE "0:"
    INDEX 01 00:07:02
  TRACK 05 AUDIO
    TITLE "4:cjc030_02462"
    INDEX 01 00:07:09
  TRACK 06 AUDIO
    TITLE "0:"
    INDEX 01 00:09:10
  TRACK 07 AUDIO
    TITLE "5:cjc030_02463"
    INDEX 01 00:09:20
  TRACK 08 AUDIO
    TITLE "0:"
    INDEX 01 00:10:41
  TRACK 09 AUDIO
    TITLE "6:cjc030_02464"
    INDEX 01 00:10:53
  TRACK 10 AUDIO
    TITLE "0:"
    INDEX 01 00:14:43
  TRACK 11 AUDIO
    TITLE "3:cjc030_02465"
    INDEX 01 00:15:17
  TRACK 12 AUDIO
    TITLE "0:"
    INDEX 01 00:16:51
  TRACK 13 AUDIO
    TITLE "4:cjc030_02466"
    INDEX 01 00:16:59
  TRACK 14 AUDIO
    TITLE "0:"
    INDEX 01 00:17:57
  TRACK 15 AUDIO
    TITLE "5:cjc030_02467"
    INDEX 01 00:17:65
  TRACK 16 AUDIO
    TITLE "0:"
    INDEX 01 00:19:24
  TRACK 17 AUDIO
    TITLE "6:cjc030_02468"
    INDEX 01 00:19:36
  TRACK 18 AUDIO
    TITLE "0:"
    INDEX 01 00:25:31
  TRACK 19 AUDIO
    TITLE "3:cjc030_02469"
    INDEX 01 00:26:05
  TRACK 20 AUDIO
    TITLE "0:"
    INDEX 01 00:27:38
  TRACK 21 AUDIO
    TITLE "4:cjc030_02470"
    INDEX 01 00:27:51
  TRACK 22 AUDIO
    TITLE "0:"
    INDEX 01 00:28:64
  TRACK 23 AUDIO
    TITLE "5:cjc030_02471"
    INDEX 01 00:28:72
  TRACK 24 AUDIO
    TITLE "0:"
    INDEX 01 00:30:32
  TRACK 25 AUDIO
    TITLE "6:cjc030_02472"
    INDEX 01 00:30:44
  TRACK 26 AUDIO
    TITLE "0:"
    INDEX 01 00:33:52
  TRACK 27 AUDIO
    TITLE "3:cjc030_02473"
    INDEX 01 00:34:24
  TRACK 28 AUDIO
    TITLE "0:"
    INDEX 01 00:35:49
  TRACK 29 AUDIO
    TITLE "4:cjc030_02474"
    INDEX 01 00:35:57
  TRACK 30 AUDIO
    TITLE "0:"
    INDEX 01 00:36:52
  TRACK 31 AUDIO
    TITLE "5:cjc030_02475"
    INDEX 01 00:36:60
  TRACK 32 AUDIO
    TITLE "0:"
    INDEX 01 00:38:12
  TRACK 33 AUDIO
    TITLE "6:cjc030_02476"
    INDEX 01 00:38:24
  TRACK 34 AUDIO
    TITLE "0:"
    INDEX 01 00:43:19
  TRACK 35 AUDIO
    TITLE "3:cjc030_02477"
    INDEX 01 00:43:66
  TRACK 36 AUDIO
    TITLE "0:"
    INDEX 01 00:45:04
  TRACK 37 AUDIO
    TITLE "4:cjc030_02478"
    INDEX 01 00:45:14
  TRACK 38 AUDIO
    TITLE "0:"
    INDEX 01 00:46:56
  TRACK 39 AUDIO
    TITLE "5:cjc030_02479"
    INDEX 01 00:46:66
  TRACK 40 AUDIO
    TITLE "0:"
    INDEX 01 00:48:04
  TRACK 41 AUDIO
    TITLE "6:cjc030_02480"
    INDEX 01 00:48:16
  TRACK 42 AUDIO
    TITLE "0:"
    INDEX 01 00:51:56
  TRACK 43 AUDIO
    TITLE "3:cjc030_02481"
    INDEX 01 00:52:30
  TRACK 44 AUDIO
    TITLE "0:"
    INDEX 01 00:53:47
  TRACK 45 AUDIO
    TITLE "4:cjc030_02482"
    INDEX 01 00:53:53
  TRACK 46 AUDIO
    TITLE "0:"
    INDEX 01 00:56:45
  TRACK 47 AUDIO
    TITLE "5:cjc030_02483"
    INDEX 01 00:56:53
  TRACK 48 AUDIO
    TITLE "0:"
    INDEX 01 00:57:72
  TRACK 49 AUDIO
    TITLE "6:cjc030_02484"
    INDEX 01 00:58:09
  TRACK 50 AUDIO
    TITLE "0:"
    INDEX 01 01:01:66
  TRACK 51 AUDIO
    TITLE "3:cjc030_02485"
    INDEX 01 01:02:40
  TRACK 52 AUDIO
    TITLE "0:"
    INDEX 01 01:03:65
  TRACK 53 AUDIO
    TITLE "4:cjc030_02486"
    INDEX 01 01:04:00
  TRACK 54 AUDIO
    TITLE "0:"
    INDEX 01 01:06:00
  TRACK 55 AUDIO
    TITLE "5:cjc030_02487"
    INDEX 01 01:06:08
  TRACK 56 AUDIO
    TITLE "0:"
    INDEX 01 01:07:35
  TRACK 57 AUDIO
    TITLE "6:cjc030_02488"
    INDEX 01 01:07:47
  TRACK 58 AUDIO
    TITLE "0:"
    INDEX 01 01:12:42
  TRACK 59 AUDIO
    TITLE "3:cjc030_02489"
    INDEX 01 01:13:14
  TRACK 60 AUDIO
    TITLE "0:"
    INDEX 01 01:14:45
  TRACK 61 AUDIO
    TITLE "4:cjc030_02490"
    INDEX 01 01:14:55
  TRACK 62 AUDIO
    TITLE "0:"
    INDEX 01 01:16:18
  TRACK 63 AUDIO
    TITLE "5:cjc030_02491"
    INDEX 01 01:16:26
  TRACK 64 AUDIO
    TITLE "0:"
    INDEX 01 01:17:59
  TRACK 65 AUDIO
    TITLE "3:cjc030_02492"
    INDEX 01 01:18:41
  TRACK 66 AUDIO
    TITLE "0:"
    INDEX 01 01:19:60
  TRACK 67 AUDIO
    TITLE "4:cjc030_02493"
    INDEX 01 01:19:66
  TRACK 68 AUDIO
    TITLE "0:"
    INDEX 01 01:22:11
  TRACK 69 AUDIO
    TITLE "5:cjc030_02494"
    INDEX 01 01:22:21
  TRACK 70 AUDIO
    TITLE "0:"
    INDEX 01 01:23:40
  TRACK 71 AUDIO
    TITLE "6:cjc030_02495"
    INDEX 01 01:23:52
  TRACK 72 AUDIO
    TITLE "0:"
    INDEX 01 01:27:06
  TRACK 73 AUDIO
    TITLE "3:cjc030_02496"
    INDEX 01 01:27:55
  TRACK 74 AUDIO
    TITLE "0:"
    INDEX 01 01:29:09
  TRACK 75 AUDIO
    TITLE "4:cjc030_02497"
    INDEX 01 01:29:19
  TRACK 76 AUDIO
    TITLE "0:"
    INDEX 01 01:30:71
  TRACK 77 AUDIO
    TITLE "5:cjc030_02498"
    INDEX 01 01:31:04
  TRACK 78 AUDIO
    TITLE "0:"
    INDEX 01 01:32:33
